<?xml version="1.0" encoding="utf-8"?>
<!-- Generator: Adobe Illustrator 24.1.2, SVG Export Plug-In . SVG Version: 6.00 Build 0)  -->
<svg version="1.1" id="scene1" xmlns="http://www.w3.org/2000/svg" xmlns:xlink="http://www.w3.org/1999/xlink" x="0px" y="0px"
	 viewBox="0 0 401.4 745.5" style="enable-background:new 0 0 401.4 745.5;" xml:space="preserve">
<style type="text/css">
	.st0{fill:#1B1464;}
	.st1{fill:#FFFF00;stroke:#000000;stroke-miterlimit:10;}
	.st2{fill:#EABC90;}
	.st3{fill:#F2B88D;}
	.st4{fill:#F39768;}
	.st5{fill:#EEA980;}
	.st6{opacity:0.19;fill:#662D91;enable-background:new    ;}
	.st7{fill:#FFFFFF;}
	.st8{fill:#FAD4B2;}
	.st9{fill:#FFFFFF;stroke:#000000;stroke-miterlimit:10;}
	.st10{fill:#666666;stroke:#000000;stroke-miterlimit:10;}
	.st11{fill:#808080;stroke:#000000;stroke-miterlimit:10;}
	.st12{enable-background:new    ;}
	.st13{fill:#006837;}
	.st14{fill:#999999;}
	.st15{font-family:'MyriadPro-Regular';}
	.st16{font-size:30px;}
</style>
<g id="phone">
	<polygon id="cuff1" class="st0" points="9.3,534.7 0,745.3 220.4,745.3 229.1,544.4 	"/>
	<circle id="button1" class="st1" cx="47.6" cy="592.5" r="14.9"/>
	<circle id="button2" class="st1" cx="88.6" cy="592.5" r="14.9"/>
	<path id="hand1" class="st2" d="M45,497.4c0,0,12.7-113.5,15.6-128.8c0,0-4.1-66.5,19.7-112.2s19.2-90.6,19.2-90.6
		s-2.5-27.9-8.6-51.1c-2-7.9-4.5-15.2-7.4-20.8c0,0-8.6-24.9,18-21.6c0,0,6.6,0,18,14.5l14.7,18.7v326.2c0,0,5.9,20,27.4,22.3
		c13.1,1.4,26.3,1.9,39.4,1.5c0,0,4.2,7.2-7.1,10.8l0.3,29.7L45,497.4z"/>
	<path id="shadow1" class="st3" d="M95.6,122.2c0,0,8.2,10.3,8.2,13.6c0,0,4.3,13.4,8,14c0,0-6.5,7.2-2.3,11.8s4.6,1,4.6,1
		s-7.8,14-2.9,16.7s3.6,9.8,3.6,9.8s-7.5,63.4-12.4,72.5s-22.1,72.4-22.6,116c0,0-22.3,114.4-18.9,119.7h97.6c0,0-6.3-25.2-6.3-28.6
		s-4.8-13.6-4.8-13.6s-43.2-22.3-19.9-99.3c0,0,4.4-75.1,1-106.6c0,0-1.5-15,7.3-61c0,0,5.8-72.7-31.1-112.9c0,0-26.7-8.7-2.4,29.6
		C102,104.7,113.9,129,95.6,122.2z"/>
	<path class="st4" d="M379.8,362.2c0,0-2.2-4.3-6.7-4.5l0,0c-1.3-0.5-2.5-0.8-3.9-1c-0.6,0.1-0.2,0.6-0.2,0.6L379.8,362.2"/>
	<path id="shadow2" class="st5" d="M195.5,496.5h-38.7c0,0-5.6-36.2-10.7-40.2s-33.6-22.5-26.6-58s11.9-106.8,9.6-125.7
		s2.3-68.6,4.6-70.2s20.8,254.5,20.8,254.5l47.9-0.9c0,0-1.3,13.2-9.4,10.5C193,466.4,199.6,490.6,195.5,496.5z"/>
	<path class="st5" d="M156.6,495.2c0,0-34.2-36.2-31.9-46.7l-0.1-15.3c0,0-7.9-17.8-6.1-26.5s6.2-42,6.2-42s12.2,80.2,21.4,80.5
		s56.2,4.8,56.2,4.8s1.1,14.4-4.7,16.2c0,0-2.6,1.1-3.6,0.7v3.5c0,0,2.8,15.6,2.7,17.7s0.9,8.1-1.2,9L156.6,495.2z"/>
	<path class="st5" d="M124.9,366.1c0,0-17.1,78.2,2.3,92l0,0c0,0,23.5,37,28.9,37.2s39.5,1.8,39.5,1.8s3.1-8.5-1.2-25.1l0,0
		l-0.3-5.8c0,0,7.2,3.8,8.4-10.3l0,0l-64.7-31L124.9,366.1z"/>
	<polygon class="st6" points="124.5,539.8 110,745.5 220.4,745.5 229.1,544.4 	"/>
	<polygon id="cuff2" class="st7" points="24.5,535.1 26.6,489.4 217.5,498.1 215.4,543.6 	"/>
	<path id="nail1" class="st8" d="M102.8,115.6c0.9-0.5-6.5,12.9-12.2-1S77.4,74.2,86.9,80S102.8,115.6,102.8,115.6z"/>
	<path id="finger1" class="st2" d="M364.1,169.1c0,0,34.1-6.6,35.2,26.4s-15.8,29.8-27.7,27.7c0,0-23.5-12.4-7.4-41.1L364.1,169.1z"
		/>
	<path id="nail2" class="st8" d="M391.5,175.7c0,0-4.2,33.1,3.1,43.3C394.6,219,407.8,193.2,391.5,175.7z"/>
	<path id="finger2" class="st2" d="M364.1,226.5c0,0,28.9,3.8,35.9,26.9l1.4,26.3c0,0-1,4.8-9.2,9.6s-30.1,26.5-30.1,26.5
		s-15.1,10.8-28.5-8s-0.2-34.5-0.2-34.5s16.7-25.9,30.9-31.9L364.1,226.5z"/>
	<path id="nail3" class="st8" d="M368.9,277.2c0,0-4-5.4-11.4-0.6s-16.3,13-11,21.3s8.6,15.7,20.3,7.8s14.8-11.7,10.8-18.3
		C375.3,283.6,372.3,280.1,368.9,277.2z"/>
	<path id="finger3" class="st2" d="M379.1,299.1c0,0-0.9,5.3,6.6,10.3s5.3,28.4,5.3,28.4s-25.3,25.3-56.9,30.6
		c0,0-38.8-10.3-17.5-38.4c0,0,11.2-13.4,23.1-16.2c0,0,13.2,8.1,22.3,1L379.1,299.1z"/>
	<path id="nail4" class="st8" d="M356.7,336.5c0,0-0.3-13.1-13.7-7.1s-18.6,10.6-14.6,19.7s8.3,15.7,15.4,11.7s17.3-7.2,16.8-11.5
		S356.7,336.5,356.7,336.5z"/>
	<path id="finger4" class="st2" d="M340.4,367.1c0,0-8.1,7.1-7.5,16.4s13.5,17.4,22.7,12.8s28.3-14.8,28-19.3s-1.7-19.2-10.4-19.3
		c-1.7-0.7-3.4-1-5.2-1C365.3,356.8,345.7,366.7,340.4,367.1z"/>
	<path id="nail5" class="st8" d="M361.6,380.4c0,0,3.9,9.2-3,11.8s-10.5,6-13.7-0.5s-6.2-11.7-0.3-14s11.9-5.4,14.3-1.7
		S361.6,380.4,361.6,380.4z"/>
	<path id="shadow2-2" class="st5" d="M390.5,242.8c0,0-27.2-0.6-44.2,23.4S333.8,308,333.8,308s-12.5-15-6.2-28.4
		s27.8-36.2,35.7-37.3l1.1-15C364.4,227.3,380.2,231.1,390.5,242.8z"/>
	<path id="shadow3" class="st5" d="M386.7,312.2c0,0-75.6,10.2-75.1,36.7c0,0-6.8-20.3,27.7-32.2c0,0,33.2-2.8,37.8-5.9L386.7,312.2
		z"/>
	<path id="shadow4" class="st5" d="M379.8,362.2c0,0-47.5,3-46.4,23.6c0,0-3.5-12.2,6.7-16.2s24.2-8.1,28.9-12.3L379.8,362.2z"/>
	<path id="shadow5" class="st5" d="M368.6,357.2c0,0,0-0.6,0.3-0.7c1.4,0.3,2.7,0.7,4,1.1c4.7-0.4,7.4,5.2,7.4,5.2"/>
	<path id="shadow6" class="st5" d="M336.2,373.3c0,0,2.9-4.4,4-5.2s13.3-3.2,20.4-8.4c0,0,8.1-4,8.9-2.9c-1.7,1.8-3.7,3.4-5.8,4.7
		C361.6,362.7,336.2,373.3,336.2,373.3z"/>
	<path id="shadow7" class="st5" d="M393.4,241.8l-3,1.1c0,0-15.6-12.9-26.5-15.5l0.1-0.8c0,0,12.3,2.6,17.5,5.8
		S393,240.1,393.4,241.8z"/>
	<path id="shadow8" class="st5" d="M364.2,169.1c0,0,6.4,18.4,1.8,29.7s6,24.4,6,24.4s-13.5-7.7-13.4-19.7s4-18.6,4-18.6
		L364.2,169.1z"/>
	<path id="shadow8-2" class="st5" d="M316.6,330.1c0,0,12.3-14.4,23.1-16.2c10.9-1.8,11.1,2.3,34-4.6l5.1,2.1c0,0-19.4,5.1-23.3,5.3
		S316.6,330.1,316.6,330.1z"/>
	<path id="body1" d="M131.9,0h224.9c4,0,7.2,3.2,7.2,7.2v442.1c0,4-3.2,7.2-7.2,7.2H131.9c-4,0-7.2-3.2-7.2-7.2V7.2
		C124.8,3.2,128,0,131.9,0z"/>
	<rect id="body2" x="138.2" y="27" class="st9" width="211.1" height="385.2"/>
	<circle id="button" class="st10" cx="245.3" cy="435.3" r="15.6"/>
	<circle id="circle1" class="st10" cx="331.9" cy="16.6" r="5.5"/>
	<circle id="circle2" class="st10" cx="318.9" cy="16.6" r="5.5"/>
	<path id="eclipse" class="st11" d="M228.6,12.4h29.1c1.6,0,2.9,1.3,2.9,2.9v0c0,1.6-1.3,2.9-2.9,2.9h-29.1c-1.6,0-2.9-1.3-2.9-2.9
		v0C225.7,13.7,227,12.4,228.6,12.4z"/>
</g>
<g id="incoming" class="st12">
	<path d="M189.4,210.1v15.8h-4.1v-15.8H189.4z"/>
	<path d="M200.2,210.1v15.8h-3.6l-2.1-7.2v7.2H191v-15.8h3.4l2.3,7.1v-7.1H200.2z"/>
	<path d="M211.4,217h-4.1v-2.7c0-0.8,0-1.3-0.1-1.5c-0.1-0.2-0.3-0.3-0.6-0.3c-0.3,0-0.6,0.1-0.6,0.4c-0.1,0.2-0.1,0.8-0.1,1.6v7.3
		c0,0.8,0,1.3,0.1,1.5c0.1,0.2,0.3,0.4,0.6,0.4c0.3,0,0.5-0.1,0.6-0.4c0.1-0.2,0.1-0.8,0.1-1.7v-2h4.1v0.6c0,1.6-0.1,2.8-0.3,3.5
		c-0.2,0.7-0.7,1.3-1.5,1.8c-0.8,0.5-1.8,0.8-2.9,0.8c-1.2,0-2.2-0.2-3-0.7s-1.3-1-1.6-1.8c-0.3-0.8-0.4-1.9-0.4-3.5v-4.6
		c0-1.1,0-2,0.1-2.6s0.3-1.1,0.7-1.6c0.4-0.5,0.9-0.9,1.6-1.2c0.7-0.3,1.5-0.5,2.4-0.5c1.2,0,2.2,0.2,3,0.7c0.8,0.5,1.3,1.1,1.6,1.8
		c0.2,0.7,0.4,1.8,0.4,3.3V217z"/>
	<path d="M222.3,219.4c0,1.6,0,2.7-0.1,3.4c-0.1,0.7-0.3,1.3-0.7,1.8c-0.4,0.5-0.9,1-1.6,1.3c-0.7,0.3-1.5,0.4-2.3,0.4
		c-0.8,0-1.6-0.1-2.3-0.4s-1.2-0.7-1.6-1.2s-0.7-1.2-0.7-1.8s-0.1-1.8-0.1-3.4v-2.7c0-1.6,0-2.7,0.1-3.4c0.1-0.7,0.3-1.3,0.7-1.8
		c0.4-0.5,0.9-1,1.6-1.3c0.7-0.3,1.5-0.4,2.3-0.4c0.8,0,1.6,0.1,2.3,0.4s1.2,0.7,1.6,1.2s0.7,1.2,0.7,1.8s0.1,1.8,0.1,3.4V219.4z
		 M218.2,214.2c0-0.7,0-1.2-0.1-1.4c-0.1-0.2-0.2-0.3-0.5-0.3c-0.2,0-0.4,0.1-0.5,0.2c-0.1,0.2-0.2,0.7-0.2,1.5v7.4
		c0,0.9,0,1.5,0.1,1.7c0.1,0.2,0.2,0.3,0.5,0.3c0.3,0,0.5-0.1,0.5-0.4s0.1-0.8,0.1-1.8V214.2z"/>
	<path d="M236.5,210.1v15.8h-3.6l0-10.7l-1.4,10.7H229l-1.5-10.4l0,10.4h-3.6v-15.8h5.3c0.2,1,0.3,2.1,0.5,3.4l0.6,4l0.9-7.4H236.5z
		"/>
	<path d="M242.3,210.1v15.8h-4.1v-15.8H242.3z"/>
	<path d="M253.1,210.1v15.8h-3.6l-2.1-7.2v7.2h-3.4v-15.8h3.4l2.3,7.1v-7.1H253.1z"/>
	<path d="M264.2,215.9h-4.1v-1.4c0-0.9,0-1.5-0.1-1.7s-0.3-0.3-0.6-0.3c-0.3,0-0.4,0.1-0.5,0.3c-0.1,0.2-0.1,0.7-0.1,1.5v7.6
		c0,0.7,0,1.2,0.1,1.4c0.1,0.2,0.3,0.3,0.5,0.3c0.3,0,0.5-0.1,0.6-0.4s0.2-0.7,0.2-1.5v-1.9h-0.8v-2.4h4.8v8.5h-2.6l-0.4-1.1
		c-0.3,0.5-0.6,0.9-1.1,1.1s-0.9,0.4-1.5,0.4c-0.7,0-1.3-0.2-1.9-0.5s-1.1-0.8-1.4-1.2c-0.3-0.5-0.5-1-0.6-1.6s-0.1-1.4-0.1-2.4
		v-4.7c0-1.5,0.1-2.6,0.2-3.3c0.2-0.7,0.6-1.3,1.4-1.9s1.8-0.9,3-0.9c1.2,0,2.2,0.2,3,0.7c0.8,0.5,1.3,1.1,1.6,1.8
		c0.2,0.7,0.4,1.7,0.4,3V215.9z"/>
	<path d="M278.9,217h-4.1v-2.7c0-0.8,0-1.3-0.1-1.5c-0.1-0.2-0.3-0.3-0.6-0.3c-0.3,0-0.6,0.1-0.6,0.4c-0.1,0.2-0.1,0.8-0.1,1.6v7.3
		c0,0.8,0,1.3,0.1,1.5c0.1,0.2,0.3,0.4,0.6,0.4c0.3,0,0.5-0.1,0.6-0.4c0.1-0.2,0.1-0.8,0.1-1.7v-2h4.1v0.6c0,1.6-0.1,2.8-0.3,3.5
		c-0.2,0.7-0.7,1.3-1.5,1.8c-0.8,0.5-1.8,0.8-2.9,0.8c-1.2,0-2.2-0.2-3-0.7s-1.3-1-1.6-1.8s-0.4-1.9-0.4-3.5v-4.6c0-1.1,0-2,0.1-2.6
		s0.3-1.1,0.7-1.6c0.4-0.5,0.9-0.9,1.6-1.2c0.7-0.3,1.5-0.5,2.4-0.5c1.2,0,2.2,0.2,3,0.7c0.8,0.5,1.3,1.1,1.6,1.8
		c0.2,0.7,0.4,1.8,0.4,3.3V217z"/>
	<path d="M287.5,210.1l2.4,15.8h-4.2l-0.2-2.8H284l-0.2,2.8h-4.3l2.1-15.8H287.5z M285.3,220.3c-0.2-1.8-0.4-4-0.6-6.6
		c-0.4,3-0.7,5.2-0.8,6.6H285.3z"/>
	<path d="M294.7,210.1v12.6h2.5v3.2h-6.6v-15.8H294.7z"/>
	<path d="M302.3,210.1v12.6h2.5v3.2h-6.6v-15.8H302.3z"/>
</g>
<g id="gcall">
	<circle class="st13" cx="246.1" cy="324.3" r="30.9"/>
	<path class="st7" d="M235.4,300.3l9.3,11.3c0,0-6.1,3.8-4.2,10s9.2,13.5,15.8,9.7l8.8,10.5c0,0-9.6,7.7-15.3,1.6
		s-17.8-22.4-19-25.1s-3.1-8.1-0.5-12.1C231.6,303.9,233.3,301.9,235.4,300.3z"/>
</g>
<g id="hoodie_1_">
	<path id="hoodie" d="M204.4,161.2c0,0,39.7,12.7,79.9,0c0,0-2.1-30.5-24.4-41c0,0-19.3,5.6-30.7,0
		C229.2,120.2,208.8,129.7,204.4,161.2z"/>
	<path id="hoodie2" d="M215.9,110.9c0,0,4.3,11.7,28.6,12.7c0,0,23,0.3,29.1-13.9c0,0-2.2-14.8-29.8-14.2S215.9,110.9,215.9,110.9z"
		/>
	<path id="face" class="st14" d="M224.4,99.5c0,0,0.3,23.5,20.2,23.8c0,0,18.6,1.2,20.3-23.8S220,84.1,224.4,99.5z"/>
	<path id="hat" d="M273.6,109.4c0,0-3.6-13.8-29.5-13.4c0,0-24.5-1-28,14.5c0-2.9,0.8-5.8,2.2-8.4c2.4-4.3,18.8-27.6,18.8-27.6
		s6.9-11.2,15.1-0.3S275.5,104,273.6,109.4z"/>
	<text transform="matrix(1 0 0 1 238.8 119.73)" class="st15 st16">?</text>
</g>
</svg>
